<svg width="387" height="28" viewBox="0 0 387 28" fill="none" xmlns="http://www.w3.org/2000/svg">
<path d="M19.4961 -1.43051e-06V21H15.6561V3.3H4.76606V21H0.926055V-1.43051e-06H19.4961ZM40.1175 4.98L32.6175 22.29C31.9175 24.03 31.0675 25.25 30.0675 25.95C29.0675 26.67 27.8575 27.03 26.4375 27.03C25.6375 27.03 24.8475 26.9 24.0675 26.64C23.2875 26.38 22.6475 26.02 22.1475 25.56L23.6475 22.8C24.0075 23.14 24.4275 23.41 24.9075 23.61C25.4075 23.81 25.9075 23.91 26.4075 23.91C27.0675 23.91 27.6075 23.74 28.0275 23.4C28.4675 23.06 28.8675 22.49 29.2275 21.69L29.4975 21.06L22.5075 4.98H26.4075L31.4475 16.83L36.5175 4.98H40.1175ZM55.5293 8.16H49.9193V21H46.1693V8.16H40.5293V4.98H55.5293V8.16ZM72.5464 13.08C72.5464 13.34 72.5264 13.71 72.4864 14.19H59.9164C60.1364 15.37 60.7064 16.31 61.6264 17.01C62.5664 17.69 63.7264 18.03 65.1064 18.03C66.8664 18.03 68.3164 17.45 69.4564 16.29L71.4664 18.6C70.7464 19.46 69.8364 20.11 68.7364 20.55C67.6364 20.99 66.3964 21.21 65.0164 21.21C63.2564 21.21 61.7064 20.86 60.3664 20.16C59.0264 19.46 57.9864 18.49 57.2464 17.25C56.5264 15.99 56.1664 14.57 56.1664 12.99C56.1664 11.43 56.5164 10.03 57.2164 8.79C57.9364 7.53 58.9264 6.55 60.1864 5.85C61.4464 5.15 62.8664 4.8 64.4464 4.8C66.0064 4.8 67.3964 5.15 68.6164 5.85C69.8564 6.53 70.8164 7.5 71.4964 8.76C72.1964 10 72.5464 11.44 72.5464 13.08ZM64.4464 7.8C63.2464 7.8 62.2264 8.16 61.3864 8.88C60.5664 9.58 60.0664 10.52 59.8864 11.7H68.9764C68.8164 10.54 68.3264 9.6 67.5064 8.88C66.6864 8.16 65.6664 7.8 64.4464 7.8ZM100.258 4.98V21H76.6479V4.98H80.3979V17.82H86.6079V4.98H90.3579V17.82H96.5079V4.98H100.258ZM120.3 13.08C120.3 13.34 120.28 13.71 120.24 14.19H107.67C107.89 15.37 108.46 16.31 109.38 17.01C110.32 17.69 111.48 18.03 112.86 18.03C114.62 18.03 116.07 17.45 117.21 16.29L119.22 18.6C118.5 19.46 117.59 20.11 116.49 20.55C115.39 20.99 114.15 21.21 112.77 21.21C111.01 21.21 109.46 20.86 108.12 20.16C106.78 19.46 105.74 18.49 105 17.25C104.28 15.99 103.92 14.57 103.92 12.99C103.92 11.43 104.27 10.03 104.97 8.79C105.69 7.53 106.68 6.55 107.94 5.85C109.2 5.15 110.62 4.8 112.2 4.8C113.76 4.8 115.15 5.15 116.37 5.85C117.61 6.53 118.57 7.5 119.25 8.76C119.95 10 120.3 11.44 120.3 13.08ZM112.2 7.8C111 7.8 109.98 8.16 109.14 8.88C108.32 9.58 107.82 10.52 107.64 11.7H116.73C116.57 10.54 116.08 9.6 115.26 8.88C114.44 8.16 113.42 7.8 112.2 7.8ZM131.692 21.21C130.032 21.21 128.542 20.86 127.222 20.16C125.902 19.46 124.872 18.49 124.132 17.25C123.392 15.99 123.022 14.57 123.022 12.99C123.022 11.41 123.392 10 124.132 8.76C124.872 7.52 125.892 6.55 127.192 5.85C128.512 5.15 130.012 4.8 131.692 4.8C133.272 4.8 134.652 5.12 135.832 5.76C137.032 6.4 137.932 7.32 138.532 8.52L135.652 10.2C135.192 9.46 134.612 8.91 133.912 8.55C133.232 8.17 132.482 7.98 131.662 7.98C130.262 7.98 129.102 8.44 128.182 9.36C127.262 10.26 126.802 11.47 126.802 12.99C126.802 14.51 127.252 15.73 128.152 16.65C129.072 17.55 130.242 18 131.662 18C132.482 18 133.232 17.82 133.912 17.46C134.612 17.08 135.192 16.52 135.652 15.78L138.532 17.46C137.912 18.66 137.002 19.59 135.802 20.25C134.622 20.89 133.252 21.21 131.692 21.21ZM154.377 8.16H148.767V21H145.017V8.16H139.377V4.98H154.377V8.16ZM168.707 12.66C170.687 13.26 171.677 14.54 171.677 16.5C171.677 17.94 171.137 19.05 170.057 19.83C168.977 20.61 167.377 21 165.257 21H157.097V4.98H164.927C166.887 4.98 168.417 5.34 169.517 6.06C170.617 6.78 171.167 7.8 171.167 9.12C171.167 9.94 170.947 10.65 170.507 11.25C170.087 11.85 169.487 12.32 168.707 12.66ZM160.667 11.67H164.597C166.537 11.67 167.507 11 167.507 9.66C167.507 8.36 166.537 7.71 164.597 7.71H160.667V11.67ZM164.957 18.27C167.017 18.27 168.047 17.6 168.047 16.26C168.047 15.56 167.807 15.04 167.327 14.7C166.847 14.34 166.097 14.16 165.077 14.16H160.667V18.27H164.957ZM175.671 4.98H179.421V15.54L188.271 4.98H191.691V21H187.941V10.44L179.121 21H175.671V4.98ZM211.736 13.08C211.736 13.34 211.716 13.71 211.676 14.19H199.106C199.326 15.37 199.896 16.31 200.816 17.01C201.756 17.69 202.916 18.03 204.296 18.03C206.056 18.03 207.506 17.45 208.646 16.29L210.656 18.6C209.936 19.46 209.026 20.11 207.926 20.55C206.826 20.99 205.586 21.21 204.206 21.21C202.446 21.21 200.896 20.86 199.556 20.16C198.216 19.46 197.176 18.49 196.436 17.25C195.716 15.99 195.356 14.57 195.356 12.99C195.356 11.43 195.706 10.03 196.406 8.79C197.126 7.53 198.116 6.55 199.376 5.85C200.636 5.15 202.056 4.8 203.636 4.8C205.196 4.8 206.586 5.15 207.806 5.85C209.046 6.53 210.006 7.5 210.686 8.76C211.386 10 211.736 11.44 211.736 13.08ZM203.636 7.8C202.436 7.8 201.416 8.16 200.576 8.88C199.756 9.58 199.256 10.52 199.076 11.7H208.166C208.006 10.54 207.516 9.6 206.696 8.88C205.876 8.16 204.856 7.8 203.636 7.8ZM239.488 4.98V21H235.768V8.16H227.878V21H224.128V4.98H239.488ZM251.688 21.21C250.068 21.21 248.608 20.86 247.308 20.16C246.008 19.46 244.988 18.49 244.248 17.25C243.528 15.99 243.168 14.57 243.168 12.99C243.168 11.41 243.528 10 244.248 8.76C244.988 7.52 246.008 6.55 247.308 5.85C248.608 5.15 250.068 4.8 251.688 4.8C253.328 4.8 254.798 5.15 256.098 5.85C257.398 6.55 258.408 7.52 259.128 8.76C259.868 10 260.238 11.41 260.238 12.99C260.238 14.57 259.868 15.99 259.128 17.25C258.408 18.49 257.398 19.46 256.098 20.16C254.798 20.86 253.328 21.21 251.688 21.21ZM251.688 18C253.068 18 254.208 17.54 255.108 16.62C256.008 15.7 256.458 14.49 256.458 12.99C256.458 11.49 256.008 10.28 255.108 9.36C254.208 8.44 253.068 7.98 251.688 7.98C250.308 7.98 249.168 8.44 248.268 9.36C247.388 10.28 246.948 11.49 246.948 12.99C246.948 14.49 247.388 15.7 248.268 16.62C249.168 17.54 250.308 18 251.688 18ZM288.404 17.73V21H272.654V-1.43051e-06H287.984V3.27H276.554V8.73H286.694V11.94H276.554V17.73H288.404ZM303.942 12.66C305.922 13.26 306.912 14.54 306.912 16.5C306.912 17.94 306.372 19.05 305.292 19.83C304.212 20.61 302.612 21 300.492 21H292.332V4.98H300.162C302.122 4.98 303.652 5.34 304.752 6.06C305.852 6.78 306.402 7.8 306.402 9.12C306.402 9.94 306.182 10.65 305.742 11.25C305.322 11.85 304.722 12.32 303.942 12.66ZM295.902 11.67H299.832C301.772 11.67 302.742 11 302.742 9.66C302.742 8.36 301.772 7.71 299.832 7.71H295.902V11.67ZM300.192 18.27C302.252 18.27 303.282 17.6 303.282 16.26C303.282 15.56 303.042 15.04 302.562 14.7C302.082 14.34 301.332 14.16 300.312 14.16H295.902V18.27H300.192ZM319.786 4.8C321.346 4.8 322.736 5.14 323.956 5.82C325.196 6.5 326.166 7.46 326.866 8.7C327.566 9.94 327.916 11.37 327.916 12.99C327.916 14.61 327.566 16.05 326.866 17.31C326.166 18.55 325.196 19.51 323.956 20.19C322.736 20.87 321.346 21.21 319.786 21.21C317.626 21.21 315.916 20.49 314.656 19.05V26.82H310.906V4.98H314.476V7.08C315.096 6.32 315.856 5.75 316.756 5.37C317.676 4.99 318.686 4.8 319.786 4.8ZM319.366 18C320.746 18 321.876 17.54 322.756 16.62C323.656 15.7 324.106 14.49 324.106 12.99C324.106 11.49 323.656 10.28 322.756 9.36C321.876 8.44 320.746 7.98 319.366 7.98C318.466 7.98 317.656 8.19 316.936 8.61C316.216 9.01 315.646 9.59 315.226 10.35C314.806 11.11 314.596 11.99 314.596 12.99C314.596 13.99 314.806 14.87 315.226 15.63C315.646 16.39 316.216 16.98 316.936 17.4C317.656 17.8 318.466 18 319.366 18ZM338.788 21.21C337.168 21.21 335.708 20.86 334.408 20.16C333.108 19.46 332.088 18.49 331.348 17.25C330.628 15.99 330.268 14.57 330.268 12.99C330.268 11.41 330.628 10 331.348 8.76C332.088 7.52 333.108 6.55 334.408 5.85C335.708 5.15 337.168 4.8 338.788 4.8C340.428 4.8 341.898 5.15 343.198 5.85C344.498 6.55 345.508 7.52 346.228 8.76C346.968 10 347.338 11.41 347.338 12.99C347.338 14.57 346.968 15.99 346.228 17.25C345.508 18.49 344.498 19.46 343.198 20.16C341.898 20.86 340.428 21.21 338.788 21.21ZM338.788 18C340.168 18 341.308 17.54 342.208 16.62C343.108 15.7 343.558 14.49 343.558 12.99C343.558 11.49 343.108 10.28 342.208 9.36C341.308 8.44 340.168 7.98 338.788 7.98C337.408 7.98 336.268 8.44 335.368 9.36C334.488 10.28 334.048 11.49 334.048 12.99C334.048 14.49 334.488 15.7 335.368 16.62C336.268 17.54 337.408 18 338.788 18ZM366.402 4.98V21H362.682V8.16H354.792V21H351.042V4.98H366.402ZM386.462 13.08C386.462 13.34 386.442 13.71 386.402 14.19H373.832C374.052 15.37 374.622 16.31 375.542 17.01C376.482 17.69 377.642 18.03 379.022 18.03C380.782 18.03 382.232 17.45 383.372 16.29L385.382 18.6C384.662 19.46 383.752 20.11 382.652 20.55C381.552 20.99 380.312 21.21 378.932 21.21C377.172 21.21 375.622 20.86 374.282 20.16C372.942 19.46 371.902 18.49 371.162 17.25C370.442 15.99 370.082 14.57 370.082 12.99C370.082 11.43 370.432 10.03 371.132 8.79C371.852 7.53 372.842 6.55 374.102 5.85C375.362 5.15 376.782 4.8 378.362 4.8C379.922 4.8 381.312 5.15 382.532 5.85C383.772 6.53 384.732 7.5 385.412 8.76C386.112 10 386.462 11.44 386.462 13.08ZM378.362 7.8C377.162 7.8 376.142 8.16 375.302 8.88C374.482 9.58 373.982 10.52 373.802 11.7H382.892C382.732 10.54 382.242 9.6 381.422 8.88C380.602 8.16 379.582 7.8 378.362 7.8Z" fill="white"/>
</svg>
