<svg width="209" height="58" viewBox="0 0 209 58" fill="none" xmlns="http://www.w3.org/2000/svg">
<path d="M15.8453 0.199999V17H12.7733V2.84H4.06128V17H0.989281V0.199999H15.8453ZM32.3425 4.184L26.3425 18.032C25.7825 19.424 25.1025 20.4 24.3025 20.96C23.5025 21.536 22.5345 21.824 21.3985 21.824C20.7585 21.824 20.1265 21.72 19.5025 21.512C18.8785 21.304 18.3665 21.016 17.9665 20.648L19.1665 18.44C19.4545 18.712 19.7905 18.928 20.1745 19.088C20.5745 19.248 20.9745 19.328 21.3745 19.328C21.9025 19.328 22.3345 19.192 22.6705 18.92C23.0225 18.648 23.3425 18.192 23.6305 17.552L23.8465 17.048L18.2545 4.184H21.3745L25.4065 13.664L29.4625 4.184H32.3425ZM44.6719 6.728H40.1839V17H37.1839V6.728H32.6719V4.184H44.6719V6.728ZM58.2855 10.664C58.2855 10.872 58.2695 11.168 58.2375 11.552H48.1815C48.3575 12.496 48.8135 13.248 49.5495 13.808C50.3015 14.352 51.2295 14.624 52.3335 14.624C53.7415 14.624 54.9015 14.16 55.8135 13.232L57.4215 15.08C56.8455 15.768 56.1175 16.288 55.2375 16.64C54.3575 16.992 53.3655 17.168 52.2615 17.168C50.8535 17.168 49.6135 16.888 48.5415 16.328C47.4695 15.768 46.6375 14.992 46.0455 14C45.4695 12.992 45.1815 11.856 45.1815 10.592C45.1815 9.344 45.4615 8.224 46.0215 7.232C46.5975 6.224 47.3895 5.44 48.3975 4.88C49.4055 4.32 50.5415 4.04 51.8055 4.04C53.0535 4.04 54.1655 4.32 55.1415 4.88C56.1335 5.424 56.9015 6.2 57.4455 7.208C58.0055 8.2 58.2855 9.352 58.2855 10.664ZM51.8055 6.44C50.8455 6.44 50.0295 6.728 49.3575 7.304C48.7015 7.864 48.3015 8.616 48.1575 9.56H55.4295C55.3015 8.632 54.9095 7.88 54.2535 7.304C53.5975 6.728 52.7815 6.44 51.8055 6.44ZM80.4548 4.184V17H61.5668V4.184H64.5668V14.456H69.5348V4.184H72.5348V14.456H77.4548V4.184H80.4548ZM96.4887 10.664C96.4887 10.872 96.4727 11.168 96.4407 11.552H86.3847C86.5607 12.496 87.0167 13.248 87.7527 13.808C88.5047 14.352 89.4327 14.624 90.5367 14.624C91.9447 14.624 93.1047 14.16 94.0167 13.232L95.6247 15.08C95.0487 15.768 94.3207 16.288 93.4407 16.64C92.5607 16.992 91.5687 17.168 90.4647 17.168C89.0567 17.168 87.8167 16.888 86.7447 16.328C85.6727 15.768 84.8407 14.992 84.2487 14C83.6727 12.992 83.3847 11.856 83.3847 10.592C83.3847 9.344 83.6647 8.224 84.2247 7.232C84.8007 6.224 85.5927 5.44 86.6007 4.88C87.6087 4.32 88.7447 4.04 90.0087 4.04C91.2567 4.04 92.3687 4.32 93.3447 4.88C94.3367 5.424 95.1047 6.2 95.6487 7.208C96.2087 8.2 96.4887 9.352 96.4887 10.664ZM90.0087 6.44C89.0487 6.44 88.2327 6.728 87.5607 7.304C86.9047 7.864 86.5047 8.616 86.3607 9.56H93.6327C93.5047 8.632 93.1127 7.88 92.4567 7.304C91.8007 6.728 90.9847 6.44 90.0087 6.44ZM105.602 17.168C104.274 17.168 103.082 16.888 102.026 16.328C100.97 15.768 100.146 14.992 99.5539 14C98.9619 12.992 98.6659 11.856 98.6659 10.592C98.6659 9.328 98.9619 8.2 99.5539 7.208C100.146 6.216 100.962 5.44 102.002 4.88C103.058 4.32 104.258 4.04 105.602 4.04C106.866 4.04 107.97 4.296 108.914 4.808C109.874 5.32 110.594 6.056 111.074 7.016L108.77 8.36C108.402 7.768 107.938 7.328 107.378 7.04C106.834 6.736 106.234 6.584 105.578 6.584C104.458 6.584 103.53 6.952 102.794 7.688C102.058 8.408 101.69 9.376 101.69 10.592C101.69 11.808 102.05 12.784 102.77 13.52C103.506 14.24 104.442 14.6 105.578 14.6C106.234 14.6 106.834 14.456 107.378 14.168C107.938 13.864 108.402 13.416 108.77 12.824L111.074 14.168C110.578 15.128 109.85 15.872 108.89 16.4C107.946 16.912 106.85 17.168 105.602 17.168ZM123.75 6.728H119.262V17H116.262V6.728H111.75V4.184H123.75V6.728ZM135.214 10.328C136.798 10.808 137.59 11.832 137.59 13.4C137.59 14.552 137.158 15.44 136.294 16.064C135.43 16.688 134.15 17 132.454 17H125.926V4.184H132.19C133.758 4.184 134.982 4.472 135.862 5.048C136.742 5.624 137.182 6.44 137.182 7.496C137.182 8.152 137.006 8.72 136.654 9.2C136.318 9.68 135.838 10.056 135.214 10.328ZM128.782 9.536H131.926C133.478 9.536 134.254 9 134.254 7.928C134.254 6.888 133.478 6.368 131.926 6.368H128.782V9.536ZM132.214 14.816C133.862 14.816 134.686 14.28 134.686 13.208C134.686 12.648 134.494 12.232 134.11 11.96C133.726 11.672 133.126 11.528 132.31 11.528H128.782V14.816H132.214ZM140.786 4.184H143.786V12.632L150.866 4.184H153.602V17H150.602V8.552L143.546 17H140.786V4.184ZM169.637 10.664C169.637 10.872 169.621 11.168 169.589 11.552H159.533C159.709 12.496 160.165 13.248 160.901 13.808C161.653 14.352 162.581 14.624 163.685 14.624C165.093 14.624 166.253 14.16 167.165 13.232L168.773 15.08C168.197 15.768 167.469 16.288 166.589 16.64C165.709 16.992 164.717 17.168 163.613 17.168C162.205 17.168 160.965 16.888 159.893 16.328C158.821 15.768 157.989 14.992 157.397 14C156.821 12.992 156.533 11.856 156.533 10.592C156.533 9.344 156.813 8.224 157.373 7.232C157.949 6.224 158.741 5.44 159.749 4.88C160.757 4.32 161.893 4.04 163.157 4.04C164.405 4.04 165.517 4.32 166.493 4.88C167.485 5.424 168.253 6.2 168.797 7.208C169.357 8.2 169.637 9.352 169.637 10.664ZM163.157 6.44C162.197 6.44 161.381 6.728 160.709 7.304C160.053 7.864 159.653 8.616 159.509 9.56H166.781C166.653 8.632 166.261 7.88 165.605 7.304C164.949 6.728 164.133 6.44 163.157 6.44ZM191.839 4.184V17H188.863V6.728H182.551V17H179.551V4.184H191.839ZM201.599 17.168C200.303 17.168 199.135 16.888 198.095 16.328C197.055 15.768 196.239 14.992 195.647 14C195.071 12.992 194.783 11.856 194.783 10.592C194.783 9.328 195.071 8.2 195.647 7.208C196.239 6.216 197.055 5.44 198.095 4.88C199.135 4.32 200.303 4.04 201.599 4.04C202.911 4.04 204.087 4.32 205.127 4.88C206.167 5.44 206.975 6.216 207.551 7.208C208.143 8.2 208.439 9.328 208.439 10.592C208.439 11.856 208.143 12.992 207.551 14C206.975 14.992 206.167 15.768 205.127 16.328C204.087 16.888 202.911 17.168 201.599 17.168ZM201.599 14.6C202.703 14.6 203.615 14.232 204.335 13.496C205.055 12.76 205.415 11.792 205.415 10.592C205.415 9.392 205.055 8.424 204.335 7.688C203.615 6.952 202.703 6.584 201.599 6.584C200.495 6.584 199.583 6.952 198.863 7.688C198.159 8.424 197.807 9.392 197.807 10.592C197.807 11.792 198.159 12.76 198.863 13.496C199.583 14.232 200.495 14.6 201.599 14.6ZM71.62 50.384V53H59.02V36.2H71.284V38.816H62.14V43.184H70.252V45.752H62.14V50.384H71.62ZM84.0501 46.328C85.6341 46.808 86.4261 47.832 86.4261 49.4C86.4261 50.552 85.9941 51.44 85.1301 52.064C84.2661 52.688 82.9861 53 81.2901 53H74.7621V40.184H81.0261C82.5941 40.184 83.8181 40.472 84.6981 41.048C85.5781 41.624 86.0181 42.44 86.0181 43.496C86.0181 44.152 85.8421 44.72 85.4901 45.2C85.1541 45.68 84.6741 46.056 84.0501 46.328ZM77.6181 45.536H80.7621C82.3141 45.536 83.0901 45 83.0901 43.928C83.0901 42.888 82.3141 42.368 80.7621 42.368H77.6181V45.536ZM81.0501 50.816C82.6981 50.816 83.5221 50.28 83.5221 49.208C83.5221 48.648 83.3301 48.232 82.9461 47.96C82.5621 47.672 81.9621 47.528 81.1461 47.528H77.6181V50.816H81.0501ZM96.7255 40.04C97.9735 40.04 99.0855 40.312 100.061 40.856C101.053 41.4 101.829 42.168 102.389 43.16C102.949 44.152 103.229 45.296 103.229 46.592C103.229 47.888 102.949 49.04 102.389 50.048C101.829 51.04 101.053 51.808 100.061 52.352C99.0855 52.896 97.9735 53.168 96.7255 53.168C94.9975 53.168 93.6295 52.592 92.6215 51.44V57.656H89.6215V40.184H92.4775V41.864C92.9735 41.256 93.5815 40.8 94.3015 40.496C95.0375 40.192 95.8455 40.04 96.7255 40.04ZM96.3895 50.6C97.4935 50.6 98.3975 50.232 99.1015 49.496C99.8215 48.76 100.181 47.792 100.181 46.592C100.181 45.392 99.8215 44.424 99.1015 43.688C98.3975 42.952 97.4935 42.584 96.3895 42.584C95.6695 42.584 95.0215 42.752 94.4455 43.088C93.8695 43.408 93.4135 43.872 93.0775 44.48C92.7415 45.088 92.5735 45.792 92.5735 46.592C92.5735 47.392 92.7415 48.096 93.0775 48.704C93.4135 49.312 93.8695 49.784 94.4455 50.12C95.0215 50.44 95.6695 50.6 96.3895 50.6ZM111.927 53.168C110.631 53.168 109.463 52.888 108.423 52.328C107.383 51.768 106.567 50.992 105.975 50C105.399 48.992 105.111 47.856 105.111 46.592C105.111 45.328 105.399 44.2 105.975 43.208C106.567 42.216 107.383 41.44 108.423 40.88C109.463 40.32 110.631 40.04 111.927 40.04C113.239 40.04 114.415 40.32 115.455 40.88C116.495 41.44 117.303 42.216 117.879 43.208C118.471 44.2 118.767 45.328 118.767 46.592C118.767 47.856 118.471 48.992 117.879 50C117.303 50.992 116.495 51.768 115.455 52.328C114.415 52.888 113.239 53.168 111.927 53.168ZM111.927 50.6C113.031 50.6 113.943 50.232 114.663 49.496C115.383 48.76 115.743 47.792 115.743 46.592C115.743 45.392 115.383 44.424 114.663 43.688C113.943 42.952 113.031 42.584 111.927 42.584C110.823 42.584 109.911 42.952 109.191 43.688C108.487 44.424 108.135 45.392 108.135 46.592C108.135 47.792 108.487 48.76 109.191 49.496C109.911 50.232 110.823 50.6 111.927 50.6ZM134.019 40.184V53H131.043V42.728H124.731V53H121.731V40.184H134.019ZM150.067 46.664C150.067 46.872 150.051 47.168 150.019 47.552H139.963C140.139 48.496 140.595 49.248 141.331 49.808C142.083 50.352 143.011 50.624 144.115 50.624C145.523 50.624 146.683 50.16 147.595 49.232L149.203 51.08C148.627 51.768 147.899 52.288 147.019 52.64C146.139 52.992 145.147 53.168 144.043 53.168C142.635 53.168 141.395 52.888 140.323 52.328C139.251 51.768 138.419 50.992 137.827 50C137.251 48.992 136.963 47.856 136.963 46.592C136.963 45.344 137.243 44.224 137.803 43.232C138.379 42.224 139.171 41.44 140.179 40.88C141.187 40.32 142.323 40.04 143.587 40.04C144.835 40.04 145.947 40.32 146.923 40.88C147.915 41.424 148.683 42.2 149.227 43.208C149.787 44.2 150.067 45.352 150.067 46.664ZM143.587 42.44C142.627 42.44 141.811 42.728 141.139 43.304C140.483 43.864 140.083 44.616 139.939 45.56H147.211C147.083 44.632 146.691 43.88 146.035 43.304C145.379 42.728 144.563 42.44 143.587 42.44Z" fill="white"/>
</svg>
